<svg width="2689" height="1680" viewBox="0 0 2689 1680" fill="none" xmlns="http://www.w3.org/2000/svg">
<path d="M82.9355 833.035C43.3496 760.203 31.9769 675.122 51.4418 594.634C106.774 366.513 263.368 -33.9567 677.817 22.6909C1253.01 101.429 1420.32 121.113 1656.31 47.1871C1892.29 -26.7391 2300.4 -26.5203 2428.12 140.579C2505.54 241.845 2767.34 696.119 2600.24 853.595C2433.15 1011.07 2681.17 1322.52 2688.82 1487.87C2696.48 1653.22 2457.87 1674.66 2157.8 1679.69C1857.74 1684.72 114.648 1627.41 114.648 1627.41C114.648 1627.41 -108.87 1242.04 68.2821 1104.46C177.854 1019.16 128.645 917.241 82.9355 833.035Z" fill="#F8F8FF"/>
<path d="M582.245 660.992L580.228 659.78C578.63 661.343 575.919 662.759 573.815 662.715C542.042 662.073 535.517 680.179 539.894 703.402C553.709 689.116 567.824 674.963 582.245 660.992ZM646.34 754.509L645.758 755.283C646.236 754.784 646.715 754.286 647.189 753.787L646.34 754.509ZM602.024 1427.78C598.998 1428.56 596.037 1429.48 593.175 1430.57C595.989 1429.64 598.974 1428.7 602.024 1427.78ZM541.871 711.876C542.066 712.586 542.29 713.3 542.505 714.014L580.097 673.81C567.688 686.045 555.483 698.393 543.533 710.855C543.151 711.25 542.561 711.589 541.871 711.876ZM654.998 827.89C670.874 803.575 675.087 771.981 667.418 744.064C643.43 768.284 618.868 794.613 605.252 824.201C620.379 841.445 638.886 852.564 654.998 827.89ZM821.401 893.044C818.327 890.75 820.225 887.839 823.214 886.328C822.796 886.048 822.397 885.781 822.042 885.554C813.026 885.733 804.006 886.256 794.818 887.536C793.423 887.731 787.99 888.294 780.915 889.175C780.911 889.187 780.915 889.195 780.911 889.211C771.305 931.002 716.354 968.255 676.091 942.604C657.01 930.448 642.035 912.114 632.528 891.636C630.826 887.971 627.984 882.523 626.418 877.059C616.437 889.63 607.5 902.954 599.042 917.463C596.71 921.459 584.976 921.841 588.093 916.497C603.156 890.663 619.538 868.465 640.724 847.695C612.304 856.106 591.473 827.104 576.342 803.926C561.669 781.457 542.836 754.637 533.106 726.987L530.75 726.592L532.356 724.874C529.247 715.573 527.199 706.189 526.732 696.857C526.397 690.129 527.318 684.438 529.152 679.561C501.134 696.789 478.566 725.364 459.592 751.159C458.747 752.308 457.93 753.476 457.093 754.629C445.466 772.001 432.189 792.619 417.911 816.201C412.964 825.29 408.269 834.53 403.928 843.974C365.168 928.334 343.767 1019.16 336.712 1111.56C331.666 1177.67 332.128 1243.97 331.502 1310.22C331.064 1356.96 326.847 1406.42 333.236 1452.87C333.519 1454.93 331.686 1456.61 329.402 1457.55L329.454 1458.4L558.648 1456.41C558.648 1456.41 558.863 1456.07 559.242 1455.51C551.493 1455.98 553.65 1447.16 560.258 1446.69C560.478 1446.67 569.813 1433.77 572.727 1431.61C586.231 1421.6 603.371 1417.58 619.817 1415.72C668.933 1410.14 719.734 1411.54 769.774 1412.7C758.119 1394.95 766.35 1360.02 771.819 1340.28C775.307 1327.7 779.277 1315.23 783.602 1302.88C782.25 1302.73 781.222 1302.23 781.023 1301.21C777.997 1286.06 781.345 1267.87 782.155 1252.67C783.857 1220.72 785.774 1188.79 787.273 1156.84C790.198 1094.55 797.258 1027.06 784.929 965.368C784.14 961.431 795.739 958.576 796.476 962.273C808.586 1022.87 801.885 1089.35 799.007 1150.58C798.685 1157.41 798.302 1164.24 797.951 1171.07C797.967 1171.07 797.991 1171.07 798.007 1171.08C812.329 1174.87 830.78 1170.79 846.764 1166.71C849.263 1163.53 851.941 1160.53 854.815 1157.76L855.114 1157.28C855.25 1133.85 856.154 1110.45 856.764 1087.05C856.246 1051.71 855.481 1008.74 854.472 975.25C851.515 943.313 843.898 909.837 821.401 893.044Z" fill="#7A5BF5"/>
<path d="M886.22 733.831C895.045 746.673 905.731 765.672 900.211 781.944C895.942 794.538 885.315 800.253 873.186 803.802C866.429 805.78 865.389 801.681 872.093 799.722C902.686 790.765 886.65 754.358 874.672 736.926C873.52 735.251 884.115 730.764 886.22 733.831ZM815.887 811.128C817.047 811.252 815.979 810.881 815.628 810.61C814.934 810.072 814.344 809.338 813.806 808.648C812.455 806.913 811.319 804.999 810.171 803.132C808.246 799.994 806.46 796.636 803.921 793.94C801.896 791.794 791.245 795.978 793.039 797.876C796.088 801.106 798.066 805.433 800.453 809.146C802.454 812.261 804.475 815.432 808.401 815.85C811.024 816.13 814.372 815.045 816.568 813.661C818.542 812.417 817.984 811.352 815.887 811.128ZM816.034 705.631C816.034 699.123 816.034 692.61 816.034 686.106C816.034 680.096 804.339 681.902 804.339 687.019C804.339 693.528 804.339 700.04 804.339 706.545C804.343 712.555 816.034 710.744 816.034 705.631ZM892.159 690.923C892.159 697.432 892.159 703.94 892.159 710.449C892.159 716.459 903.854 714.652 903.854 709.536C903.854 703.027 903.854 696.519 903.854 690.01C903.854 684 892.159 685.811 892.159 690.923ZM1354.95 443.949C1345.98 452.806 1331.15 452.75 1319.47 451.323C1278.3 446.282 1239.31 429.883 1200.32 416.283C1128.8 435.737 1057.09 456.264 991.243 490.996C982.529 495.59 973.884 500.304 965.294 505.114C982.868 502.298 1001.86 502.733 1015.59 510.119C1042.75 524.743 1017 555.703 998.621 568.21C1019.61 577.039 1053.2 598.515 1016.22 612.677C1000.61 618.651 984.164 622.228 967.538 623.461C961.742 624.394 956.756 624.892 953.268 624.892C952.75 624.892 952.18 624.865 951.582 624.821C944.144 695.374 962.229 779.004 923.76 841.677C907.832 867.624 883.956 886.252 852.837 885.754C844.654 885.622 836.614 885.451 828.602 885.475C829.212 885.618 829.782 885.849 830.272 886.216C864.265 911.593 865.999 969.747 867.94 1007.93C870.32 1054.79 867.498 1101.47 866.943 1148.29C872.811 1144.65 879.316 1141.82 886.634 1140.1C904.404 1135.92 922.285 1136.7 940.373 1136.8C1001.01 1137.12 1061.64 1137.44 1122.27 1137.93C1165.85 1138.29 1211.14 1135.39 1254.54 1140.05C1256.28 1140.24 1256.71 1140.78 1256.41 1141.47C1271.35 1143.39 1285.15 1148.65 1294.37 1161.54C1305.33 1176.88 1292.07 1199.61 1286.98 1214.49C1270.55 1262.56 1253.89 1310.59 1238.7 1359.07C1230.13 1386.41 1224.44 1417.3 1192.3 1424.56C1190.37 1424.99 1188.42 1425.32 1186.48 1425.65C1187.7 1428.15 1185.28 1432.23 1180.85 1432.54C1180.63 1432.56 1171.29 1445.46 1168.38 1447.62C1154.88 1457.63 1137.74 1461.65 1121.29 1463.52C1057.5 1470.75 990.86 1466.23 926.745 1465.74C807.787 1464.84 688.833 1461.9 569.871 1461.84C562.051 1461.83 564.068 1453.02 570.8 1453.02C691.942 1453.08 813.069 1456.17 934.207 1456.97C968.303 1457.19 1002.4 1457.32 1036.5 1457.17C1067.34 1457.04 1100.2 1459.56 1130.58 1453.42C1145.3 1450.44 1159.93 1446.19 1168.56 1433.08C1170.17 1430.65 1171.81 1428.51 1173.79 1426.88C1171.49 1426.95 1169.18 1426.93 1166.86 1426.81C1166.26 1426.99 1165.62 1427.1 1164.91 1427.1C1042.97 1427.03 921.053 1423.46 799.11 1423.23C798.624 1423.36 798.125 1423.47 797.615 1423.52C791.469 1424.08 786.379 1423.54 782.149 1422.15C756.304 1422.02 730.459 1421.94 704.614 1422.06C673.778 1422.2 640.922 1419.67 610.541 1425.81C607.683 1426.39 604.841 1427.05 602.034 1427.78C599.009 1428.56 596.047 1429.47 593.185 1430.57C585.018 1433.7 577.708 1438.33 572.558 1446.16C569.226 1451.21 565.758 1455.06 559.34 1455.51C559.309 1455.51 559.285 1455.51 559.253 1455.51C551.504 1455.99 553.66 1447.16 560.269 1446.7C560.488 1446.68 569.824 1433.78 572.737 1431.62C586.242 1421.61 603.382 1417.59 619.828 1415.72C668.943 1410.15 719.745 1411.55 769.785 1412.71C758.13 1394.95 766.361 1360.02 771.83 1340.29C775.317 1327.7 779.287 1315.24 783.612 1302.88C782.261 1302.74 781.233 1302.23 781.033 1301.22C778.008 1286.07 781.356 1267.88 782.165 1252.67C783.867 1220.73 785.785 1188.79 787.283 1156.84C790.209 1094.55 797.268 1027.06 784.94 965.372C784.15 961.436 795.75 958.58 796.487 962.277C808.596 1022.87 801.896 1089.35 799.018 1150.58C798.695 1157.41 798.313 1164.24 797.962 1171.07C797.978 1171.08 798.002 1171.07 798.018 1171.08C812.339 1174.87 830.791 1170.8 846.774 1166.71C849.274 1163.53 851.952 1160.54 854.826 1157.76C854.922 1157.67 855.025 1157.58 855.125 1157.48C855.125 1157.41 855.125 1157.35 855.125 1157.28C855.261 1133.86 856.165 1110.46 856.775 1087.05C857.333 1065.8 857.64 1044.53 856.847 1023.24C856.341 1009.69 856.102 992.698 854.483 975.25C851.514 943.314 843.896 909.838 821.403 893.04C818.33 890.747 820.228 887.836 823.217 886.324C823.974 885.941 824.8 885.662 825.637 885.494C824.441 885.506 823.241 885.526 822.045 885.55C813.029 885.73 804.009 886.252 794.821 887.532C793.426 887.728 787.993 888.29 780.918 889.171C780.914 889.183 780.918 889.191 780.914 889.207C771.308 930.999 716.357 968.251 676.094 942.6C657.013 930.444 642.038 912.111 632.531 891.632C630.829 887.967 627.987 882.519 626.421 877.056C616.44 889.626 607.503 902.95 599.045 917.459C596.713 921.455 584.978 921.838 588.095 916.494C603.158 890.659 619.541 868.461 640.726 847.691C612.306 856.102 591.476 827.101 576.345 803.922C561.672 781.453 542.838 754.633 533.109 726.984C532.862 726.278 532.594 725.576 532.359 724.874C529.25 715.574 527.201 706.19 526.735 696.858C526.4 690.13 527.321 684.439 529.155 679.561C501.137 696.79 478.568 725.364 459.595 751.159C458.75 752.308 457.933 753.477 457.096 754.629C442.762 774.378 429.553 794.825 417.913 816.201C412.967 825.29 408.271 834.531 403.931 843.974C365.171 928.335 343.77 1019.16 336.715 1111.56C331.669 1177.67 332.131 1243.97 331.505 1310.22C331.067 1356.96 326.849 1406.42 333.239 1452.87C333.522 1454.93 331.688 1456.61 329.404 1457.55C326.184 1458.87 322.066 1458.7 321.688 1455.96C314.84 1406.19 319.443 1353.23 319.958 1303.15C320.707 1229.97 319.73 1156.59 327.77 1083.72C337.883 992.092 361.807 899.241 405.7 817.657C422.131 787.12 441.534 757.955 463.561 731.159C483.563 706.828 505.805 682.046 534.548 668.032C535.512 667.561 536.501 667.338 537.449 667.29C547.091 658.592 562.131 655.425 578.198 655.752C582.455 655.836 582.136 657.918 580.231 659.784C578.633 661.348 575.922 662.763 573.818 662.72C542.045 662.077 535.52 680.183 539.897 703.406C553.716 689.117 567.827 674.967 582.248 660.997C594.369 649.26 606.682 637.646 619.21 626.185C582.619 554.79 650.871 488.759 725.477 466.31C737.407 461.795 747.419 459.391 753.961 459.391C755.017 459.391 756.157 459.43 757.349 459.494C781.512 456.475 804.854 458.633 824.026 467.263C936.3 394.923 1058.71 339.485 1188.05 312.82C1189.02 312.621 1189.86 312.581 1190.62 312.625C1199 309.809 1207.45 305.977 1215.14 303.392C1236.51 296.21 1257.94 289.143 1279.61 282.925C1291.38 279.551 1370.48 252.955 1376.2 271.535C1380.52 285.601 1368.42 295.141 1356.81 299.081C1348.87 301.777 1340.39 302.475 1332.16 303.827C1315.77 306.519 1310.19 319.616 1299.98 330.779C1273.03 360.239 1247.11 369.351 1208.62 361.503C1202.21 360.195 1212.41 354.895 1215.79 355.584C1240.92 360.709 1257.07 359.293 1276.62 341.993C1290.1 330.057 1299.74 313.785 1314.47 303.588C1322.24 298.212 1333.61 298.112 1342.57 296.64C1351.57 295.157 1369.68 290.981 1365.37 276.971C1362.58 267.898 1341.85 274.096 1335.77 275.101C1300.24 280.955 1265.55 292.421 1231.44 303.715C1213.71 309.586 1193.56 319.851 1174.77 321.961C1174.02 322.045 1173.41 322.049 1172.86 322.021C970.312 367.9 785.884 484.635 631.714 624.916C631.989 625.427 632.236 625.941 632.523 626.456C633.109 627.513 629.319 629.491 625.887 630.236C610.305 644.546 595.043 659.09 580.1 673.822C567.691 686.058 555.486 698.405 543.536 710.868C543.157 711.263 542.567 711.602 541.878 711.889C542.073 712.599 542.296 713.312 542.512 714.026C551.396 743.734 573.287 778.043 582.69 792.588C586.756 798.877 592.285 807.687 598.706 816.145C610.632 794.287 627.768 774.143 645.773 755.295C646.251 754.797 646.729 754.298 647.204 753.8C659.5 741.002 672.128 728.786 683.687 717.033C706.491 693.851 729.722 670.967 753.705 648.945C753.737 648.043 754.798 647.226 756.284 646.588C767.756 636.111 779.383 625.818 791.249 615.816C835.494 578.527 884.414 544.05 935.399 514.502C935.714 513.704 936.69 512.875 938.608 512.145C939.397 511.846 940.23 511.559 941.051 511.268C961.384 499.662 982.019 488.823 1002.81 478.944C1063.53 450.09 1127.51 430.928 1192.09 413.181C1191.1 411.43 1199.64 407.912 1202.27 408.798C1203.13 409.089 1203.99 409.392 1204.85 409.687C1208.38 408.726 1211.91 407.765 1215.45 406.808C1222.3 404.949 1223.64 409.97 1216.79 411.829C1215.7 412.124 1214.61 412.419 1213.52 412.718C1248.45 425.121 1283.52 439.709 1320.21 445.081C1325.58 445.867 1343.5 450.034 1345.53 442.298C1348.4 431.438 1338.39 428.1 1331.04 422.899C1323.64 417.659 1311.64 408.989 1313.12 398.281C1315.88 378.456 1349.43 369.75 1364.73 364.59C1372.28 362.049 1426.35 349.311 1408.79 337.215C1408.5 337.016 1408.4 336.765 1408.47 336.485C1394.24 342.703 1379.41 347.505 1364.61 352.135C1354.63 355.257 1341.69 357.22 1332.86 363.078C1329.32 365.423 1319.24 364.211 1325.76 359.888C1342.22 348.964 1366.25 346.117 1384.64 339.584C1399.87 334.18 1442.62 319.628 1409.58 305.63C1408.96 305.366 1408.62 305.047 1408.49 304.7C1400.95 314.12 1391.67 321.107 1379.65 324.071C1362.23 328.37 1342.52 326.703 1326.98 336.625C1323.52 338.83 1313.35 337.818 1319.92 333.614C1338.15 321.969 1358.45 325 1378.23 318.774C1395.01 313.49 1421.17 277.155 1385.63 285.047C1378.73 286.578 1377.2 281.306 1384.21 279.751C1391.54 278.124 1407.05 273.976 1413.19 281.127C1418.57 287.384 1414.89 295.966 1410.6 301.977C1413.09 300.505 1417.01 299.416 1418.81 300.178C1425.95 303.201 1438.51 308.956 1433.81 318.762C1430.84 324.952 1423.84 329.271 1417.2 332.537C1418.17 332.501 1419.03 332.637 1419.61 333.036C1440.5 347.421 1392.13 360.47 1384.15 363.082C1367.63 368.494 1302.97 384.53 1332.52 411.318C1339.69 417.795 1368.84 430.222 1354.95 443.949ZM786.972 463.849C792.326 464.918 797.543 466.055 802.191 467.112C797.272 465.636 792.182 464.567 786.972 463.849ZM832.469 1189.85C834.872 1185 837.495 1180.29 840.357 1175.79C826.111 1179.04 810.976 1181.47 797.519 1179.56C796.328 1202.26 795.068 1224.97 793.856 1247.68C793.29 1258.29 791.532 1270.28 791.361 1281.78C803.459 1250.43 817.653 1219.8 832.469 1189.85ZM866.844 1156.63C866.844 1157.32 866.824 1158 866.824 1158.69C866.816 1160.87 864.899 1162.42 862.619 1163.1C867.422 1163.5 868.052 1168.97 861.917 1170.47C858.995 1171.19 855.942 1171.97 852.809 1172.76C845.766 1183.28 840.373 1195.32 834.868 1206.98C822.767 1232.61 811.271 1258.58 801.194 1285.07C794.825 1301.82 759.549 1390.78 782.544 1413C793.203 1413.22 803.817 1413.41 814.36 1413.49C933.322 1414.4 1052.27 1417.36 1171.24 1417.39C1175.08 1417.39 1176.54 1419.52 1176.24 1421.68C1214.58 1421.44 1219.3 1385.82 1229.22 1354.73C1241.69 1315.66 1254.88 1276.83 1268.13 1238.03C1272.24 1225.99 1276.36 1213.96 1280.47 1201.93C1283.31 1193.59 1289.12 1182.6 1286.47 1173.59C1280.8 1154.35 1262.21 1147.48 1243.67 1146.03C1242.51 1145.94 1241.98 1145.68 1241.9 1145.32C1233.86 1144.83 1225.7 1145 1217.71 1144.86C1155.59 1143.82 1093.46 1143.53 1031.33 1143.15C1002.73 1142.97 974.139 1142.81 945.543 1142.66C927.702 1142.57 905.065 1139.81 887.942 1145.02C879.595 1147.58 872.727 1151.62 866.844 1156.63ZM655 827.89C670.877 803.575 675.09 771.981 667.421 744.065C643.433 768.284 618.871 794.614 605.255 824.201C620.382 841.446 638.889 852.565 655 827.89ZM940.162 623.333C927.726 622.312 915.401 619.987 903.463 616.314C903.985 619.84 903.403 622.87 901.917 625.403C902.044 630.528 899.266 634.863 889.488 634.863C888.468 634.863 887.416 634.831 886.371 634.799C881.983 635.8 877.167 636.223 872.392 636.083C851.107 635.461 820.068 630.831 803.391 615.173C798.711 619.006 793.996 622.799 789.38 626.715C781.253 633.61 773.245 640.669 765.329 647.836C767.684 682.851 751.995 720.108 731.966 748.009C730.925 749.453 720.673 753.337 720.502 750.597C719.936 741.608 704.443 705.755 690.511 721.237C690.26 721.512 689.83 721.779 689.296 722.026C685.21 726.206 680.993 730.445 676.696 734.748C677.007 735.036 677.27 735.367 677.41 735.789C687.661 766.502 684.517 818.116 655.718 839.895C658.081 840.485 659.353 841.952 656.882 844.23C650.225 850.371 644.079 856.649 638.263 863.081C638.502 864.182 638.044 865.502 636.437 866.914C634.265 868.828 645.629 891.736 647.188 894.432C654.267 906.687 662.789 919.022 673.934 927.964C684.676 936.582 695.897 941.918 707.807 942.109C709.736 942.046 711.641 941.934 713.519 941.782C719.195 941.084 725.022 939.234 731.041 935.952C749.062 926.117 764.085 911.15 769.032 890.771C752.813 893.144 734.903 896.665 734.086 900.928C733.086 906.157 721.263 907.6 722.376 901.782C723.858 894.049 735.442 891.273 741.763 889.487C761.729 883.839 782.472 880.394 803.072 878.065C821.527 875.979 839.253 877.937 857.664 877.167C879.2 876.27 894.1 865.167 906.887 848.182C932.242 814.514 934.853 769.648 936.236 728.93C937.424 693.839 936.005 658.273 940.162 623.333ZM1523.67 578.188C1486.7 561.446 1449.72 544.708 1413 527.419C1406.83 524.516 1368.84 511.854 1368.73 503.108C1368.69 499.989 1374.72 497.951 1378.11 499.076C1380.17 497.708 1383.07 496.743 1384.92 497.206C1381.07 496.244 1378.8 497.624 1378.21 498.087C1378.51 497.792 1379.27 496.974 1380.52 495.14C1382.26 492.607 1383.94 490.051 1385.58 487.463C1390.48 479.766 1395.23 471.977 1399.92 464.156C1412.8 442.696 1425.41 421.077 1437.98 399.434C1450.6 377.675 1463.15 355.872 1475.79 334.117C1481.11 324.968 1485.85 314.375 1492.63 306.172C1493.31 305.342 1494.49 304.752 1495.82 304.397C1495.55 303.576 1495.26 302.754 1495.08 301.945C1493.75 296.222 1505.31 293.171 1506.62 298.85C1506.88 299.962 1507.26 301.095 1507.66 302.228C1509.16 302.607 1510.25 303.524 1510.27 305.151C1510.23 302.351 1511.87 304.964 1514.7 306.463C1518.41 308.441 1522.16 310.332 1525.94 312.186C1538.12 318.172 1550.41 323.951 1562.71 329.682C1599.54 346.839 1636.54 363.628 1673.57 380.362C1709.99 396.829 1746.46 413.212 1782.91 429.623C1798.96 436.85 1816.81 442.896 1831.94 451.969C1837.05 455.028 1826.54 460.192 1822.87 457.991C1822.78 457.935 1822.68 457.891 1822.59 457.835C1822.49 458.386 1822.18 459.016 1821.58 459.741C1813.52 469.5 1805.5 487.044 1798.41 499.287C1784.42 523.475 1770.46 547.687 1756.37 571.815C1743.54 593.773 1730.83 615.851 1717.19 637.319C1713.27 643.493 1707.14 657.563 1697.54 655.158C1697.4 655.122 1697.31 655.074 1697.18 655.034C1695.56 655.369 1693.99 655.35 1692.95 654.731C1676.12 644.645 1656.25 637.937 1638.41 629.909C1600.15 612.689 1561.89 595.496 1523.67 578.188ZM1704.45 648.275C1703.01 647.916 1701.8 647.892 1700.8 648.019C1701.04 648.159 1701.28 648.283 1701.51 648.422C1702.59 648.151 1703.62 648.067 1704.45 648.275ZM1517.5 320.246C1520.04 324.11 1522.55 327.827 1524.48 331.217C1536.85 352.877 1549.33 374.472 1561.78 396.08C1573.74 416.822 1585.73 437.544 1597.54 458.378C1601.65 465.616 1608.48 474.322 1611.24 482.673C1617.1 481.512 1623.63 481.209 1626.89 480.703C1648.17 477.397 1669.5 474.497 1690.84 471.594C1716.16 468.144 1741.5 464.774 1766.81 461.197C1776.97 459.761 1787.15 458.338 1797.28 456.699C1800.54 456.172 1803.8 455.654 1807.04 455.04C1808.02 454.852 1808.67 454.681 1809.19 454.517C1808.72 454.848 1808.18 455.331 1807.68 456.061C1808.69 454.593 1812.09 453.847 1814.92 453.596C1799.98 445.835 1783.44 439.965 1768.33 433.165C1730.07 415.948 1691.81 398.76 1653.59 381.451C1616.62 364.705 1579.64 347.971 1542.92 330.683C1539.73 329.179 1528.06 325.068 1517.5 320.246ZM1432.79 526.414C1469.62 543.571 1506.62 560.361 1543.65 577.095C1580.07 593.562 1616.54 609.945 1652.99 626.356C1668.11 633.164 1684.81 638.962 1699.35 647.198C1699.57 646.903 1699.8 646.58 1700.05 646.205C1701.79 643.672 1703.47 641.116 1705.11 638.528C1710 630.827 1714.76 623.042 1719.45 615.221C1732.33 593.761 1744.94 572.142 1757.51 550.499C1770.13 528.739 1782.68 506.937 1795.32 485.182C1800.45 476.344 1805.09 466.21 1811.51 458.134C1805.02 459.949 1796.53 460.264 1792.65 460.87C1771.38 464.18 1750.04 467.076 1728.71 469.979C1703.38 473.429 1678.05 476.799 1652.74 480.376C1642.57 481.812 1632.4 483.235 1622.27 484.874C1619.01 485.401 1615.75 485.919 1612.51 486.533C1612.29 486.573 1612.16 486.613 1611.97 486.653C1611.06 491.275 1601.59 493.253 1600.41 488.141C1597.91 477.313 1587.98 465.281 1582.54 455.765C1570.18 434.106 1557.71 412.51 1545.25 390.903C1533.29 370.161 1521.3 349.439 1509.49 328.605C1506.68 323.64 1502.56 317.985 1499.36 312.23C1492.21 322.296 1485.17 337.331 1478.88 348.206C1464.89 372.394 1450.93 396.606 1436.83 420.734C1424.01 442.688 1411.29 464.77 1397.66 486.238C1394.73 490.849 1390.57 499.85 1384.66 503.12C1384.7 503.144 1384.74 503.168 1384.78 503.192C1388.49 505.17 1392.25 507.06 1396.02 508.915C1408.2 514.905 1420.49 520.684 1432.79 526.414ZM1809.18 454.513C1810.36 453.684 1810.97 453.959 1809.18 454.513ZM1801.1 550.275C1796.89 548.991 1792.44 551.38 1791.16 555.595C1789.89 559.811 1792.27 564.261 1796.48 565.542C1796.56 565.566 1804.97 568.126 1818.7 573.107C1819.6 573.434 1820.52 573.586 1821.42 573.586C1824.68 573.586 1827.74 571.572 1828.91 568.325C1830.41 564.186 1828.28 559.607 1824.14 558.108C1809.96 552.963 1801.46 550.383 1801.1 550.275ZM2018.14 663.996C2014.75 661.188 2009.72 661.663 2006.91 665.057C2004.11 668.45 2004.58 673.479 2007.97 676.287C2019.47 685.803 2030.02 695.633 2039.33 705.508C2040.9 707.171 2043.01 708.008 2045.13 708.008C2047.09 708.008 2049.06 707.286 2050.6 705.835C2053.8 702.812 2053.95 697.763 2050.93 694.56C2041.17 684.215 2030.14 673.93 2018.14 663.996ZM2138.05 856.054C2139.16 856.054 2140.28 855.819 2141.36 855.329C2145.36 853.498 2147.12 848.764 2145.3 844.756C2139.08 831.169 2132.52 817.785 2125.78 804.979C2123.72 801.075 2118.89 799.583 2115.01 801.637C2111.11 803.691 2109.62 808.512 2111.67 812.409C2118.27 824.955 2124.71 838.072 2130.79 851.392C2132.13 854.324 2135.02 856.054 2138.05 856.054ZM1982.42 637.275C1970.63 629.263 1957.95 621.347 1944.72 613.746C1940.91 611.552 1936.04 612.868 1933.84 616.689C1931.65 620.51 1932.97 625.383 1936.78 627.576C1949.66 634.974 1962 642.679 1973.47 650.472C1974.84 651.401 1976.4 651.848 1977.94 651.848C1980.49 651.848 1983 650.624 1984.54 648.354C1987.01 644.709 1986.07 639.748 1982.42 637.275ZM2079.3 729.313C2076.72 725.743 2071.73 724.95 2068.17 727.534C2064.6 730.118 2063.81 735.107 2066.39 738.673C2074.48 749.843 2082.52 761.963 2090.3 774.693C2091.8 777.154 2094.43 778.514 2097.11 778.514C2098.52 778.514 2099.96 778.135 2101.26 777.341C2105.01 775.044 2106.2 770.135 2103.9 766.374C2095.91 753.289 2087.63 740.822 2079.3 729.313ZM1905.57 592.888C1892.59 586.471 1879.05 580.246 1865.32 574.383C1861.27 572.656 1856.59 574.539 1854.86 578.587C1853.13 582.639 1855.01 587.325 1859.06 589.055C1872.51 594.802 1885.79 600.904 1898.51 607.189C1899.65 607.752 1900.85 608.019 1902.03 608.019C1904.97 608.019 1907.8 606.388 1909.18 603.572C1911.14 599.624 1909.52 594.838 1905.57 592.888ZM2155.93 913.359C2157.05 916.701 2160.16 918.815 2163.49 918.815C2164.33 918.815 2165.18 918.683 2166.01 918.4C2170.19 917.004 2172.45 912.49 2171.06 908.31C2170.94 907.959 2168.11 899.513 2162.61 885.49C2161 881.391 2156.37 879.369 2152.27 880.98C2148.18 882.591 2146.16 887.217 2147.77 891.321C2153.1 904.916 2155.9 913.28 2155.93 913.359Z" fill="#424242"/>
<path d="M2448.92 1349.2L2360.09 1318.64L2257.53 1283.22C2232.78 1274.6 2211.31 1258.52 2196.09 1237.19C2180.86 1215.85 2172.64 1190.32 2172.54 1164.11L2171.54 955.363C2178.53 957.478 2184.67 961.733 2189.11 967.529L2191.23 970.678L2448.92 1349.2Z" fill="#EB144C"/>
<path d="M2448.92 1349.2L2360.09 1318.64L2257.53 1283.22C2232.78 1274.6 2211.31 1258.52 2196.09 1237.19C2180.86 1215.85 2172.64 1190.32 2172.54 1164.11L2171.54 955.363C2178.53 957.478 2184.67 961.733 2189.11 967.529L2191.23 970.678L2448.92 1349.2Z" stroke="#EB144C"/>
<path d="M2169.05 955.409L2170.06 1165.43C2170.21 1191.66 2162.21 1217.29 2147.17 1238.78C2132.13 1260.27 2110.79 1276.56 2086.1 1285.4L1984.11 1321.76L1895.57 1353.17L2149.62 972.187L2151.71 969.017C2155.97 962.826 2162.02 958.079 2169.05 955.409Z" fill="#EB144C"/>
<path d="M2169.05 955.409L2170.06 1165.43C2170.21 1191.66 2162.21 1217.29 2147.17 1238.78C2132.13 1260.27 2110.79 1276.56 2086.1 1285.4L1984.11 1321.76L1895.57 1353.17L2149.62 972.187L2151.71 969.017C2155.97 962.826 2162.02 958.079 2169.05 955.409Z" stroke="#EB144C"/>
<g opacity="0.5">
<path d="M1950.09 1371.72L2102.94 1317.27C2122.78 1310.22 2139.95 1297.17 2152.05 1279.93C2164.16 1262.69 2170.6 1242.11 2170.49 1221.05L2169.63 1042.51L1950.09 1371.72Z" fill="#EB144C"/>
<path d="M1950.09 1371.72L2102.94 1317.27C2122.78 1310.22 2139.95 1297.17 2152.05 1279.93C2164.16 1262.69 2170.6 1242.11 2170.49 1221.05L2169.63 1042.51L1950.09 1371.72Z" stroke="#EB144C"/>
</g>
<g opacity="0.5">
<path d="M2394.53 1369.58L2241.12 1316.61C2221.21 1309.74 2203.93 1296.86 2191.67 1279.73C2179.41 1262.61 2172.78 1242.1 2172.7 1221.04L2171.85 1042.5L2394.53 1369.58Z" fill="#EB144C"/>
<path d="M2394.53 1369.58L2241.12 1316.61C2221.21 1309.74 2203.93 1296.86 2191.67 1279.73C2179.41 1262.61 2172.78 1242.1 2172.7 1221.04L2171.85 1042.5L2394.53 1369.58Z" stroke="#EB144C"/>
</g>
</svg>
